<?xml version="1.0" encoding="UTF-8"?>
<svg width="117px" height="80px" viewBox="0 0 117 80" version="1.1" xmlns="http://www.w3.org/2000/svg" xmlns:xlink="http://www.w3.org/1999/xlink">
    <!-- Generator: Sketch 47.1 (45422) - http://www.bohemiancoding.com/sketch -->
    <title>暂无库龄车icon</title>
    <desc>Created with Sketch.</desc>
    <defs></defs>
    <g id="审批（修改版本）" stroke="none" stroke-width="1" fill="none" fill-rule="evenodd">
        <g id="审批单-01-订单审批列表-copy-5" transform="translate(-129.000000, -149.000000)">
            <g id="暂无库龄车icon" transform="translate(128.000000, 148.000000)">
                <text id="暂无库龄最长的其他车辆" font-family="PingFangSC-Regular, PingFang SC" font-size="9.6" font-weight="normal" fill="#BDC7D0">
                    <tspan x="6.84835165" y="78.8857143">暂无库龄最长的其他车辆</tspan>
                </text>
                <g id="Group-2">
                    <rect id="Rectangle-10" fill="#FAFAFA" transform="translate(36.742588, 7.587113) rotate(-15.000000) translate(-36.742588, -7.587113) " x="21.0712919" y="4.35194772" width="31.3425914" height="6.47032967" rx="3.23516484"></rect>
                    <rect id="Rectangle-10-Copy-11" fill="#FAFAFA" transform="translate(41.512296, 26.595665) rotate(-15.000000) translate(-41.512296, -26.595665) " x="25.8409999" y="17.8747859" width="31.3425914" height="17.4417582" rx="4.5010989"></rect>
                    <rect id="Rectangle-10-Copy-12" fill="#FAFAFA" transform="translate(77.008177, 43.995227) rotate(-15.000000) translate(-77.008177, -43.995227) " x="61.3368818" y="35.2743481" width="31.3425914" height="17.4417582" rx="4.5010989"></rect>
                    <rect id="Rectangle-10-Copy-10" fill="#FAFAFA" transform="translate(89.162396, 60.928097) rotate(-15.000000) translate(-89.162396, -60.928097) " x="73.4910998" y="57.6929318" width="31.3425914" height="6.47032967" rx="3.23516484"></rect>
                    <rect id="Rectangle-10-Copy" fill="#FAFAFA" transform="translate(50.733201, 17.345300) rotate(-15.000000) translate(-50.733201, -17.345300) " x="9.70072458" y="14.1101354" width="82.064953" height="6.47032967" rx="3.23516484"></rect>
                    <rect id="Rectangle-10-Copy-9" fill="#FAFAFA" transform="translate(77.262260, 50.719572) rotate(-15.000000) translate(-77.262260, -50.719572) " x="36.2297835" y="47.4844071" width="82.064953" height="6.47032967" rx="3.23516484"></rect>
                    <rect id="Rectangle-10-Copy-2" fill="#FAFAFA" transform="translate(40.562909, 33.467578) rotate(-15.000000) translate(-40.562909, -33.467578) " x="5.87072734" y="30.2324134" width="69.3843626" height="6.47032967" rx="3.23516484"></rect>
                    <rect id="Rectangle-10-Copy-5" fill="#FAFAFA" transform="translate(62.473325, 41.285099) rotate(-15.000000) translate(-62.473325, -41.285099) " x="22.7567588" y="38.0499339" width="79.4331323" height="6.47032967" rx="3.23516484"></rect>
                    <rect id="Rectangle-10-Copy-13" fill="#F5F5F9" transform="translate(16.396880, 33.307820) rotate(-15.000000) translate(-16.396880, -33.307820) " x="0.725583872" y="30.0726552" width="31.3425914" height="6.47032967" rx="3.23516484"></rect>
                    <rect id="Rectangle-10-Copy-14" fill="#F5F5F9" transform="translate(102.102353, 37.372737) rotate(-15.000000) translate(-102.102353, -37.372737) " x="86.4310577" y="34.1375719" width="31.3425914" height="6.47032967" rx="3.23516484"></rect>
                </g>
                <g id="车辆" transform="translate(35.384615, 14.960440)" fill-rule="nonzero" fill="#DBDBDB">
                    <path d="M44.5753769,37.4070418 C43.9908485,39.7628564 41.9167058,41.4806096 39.4623086,41.4806096 C37.183892,41.4806096 35.2432906,40.0205996 34.5047546,37.916256 L14.0539394,37.916256 C13.3153548,40.0222041 11.3732463,41.4806096 9.09478123,41.4806096 C6.64038396,41.4806096 4.56940114,39.7628564 3.98326843,37.4070418 C1.43140113,36.3367828 -0.194865595,33.6949272 0.0187906541,30.7623142 L0.520044218,23.9400691 C0.716442668,21.2164806 2.43074837,18.8088353 4.88674988,17.686697 L7.09292676,7.05173913 C7.90059108,3.16366285 11.7110613,0 15.5891043,0 L32.9695409,0 C36.8475839,0 40.6580542,3.16205829 41.4641142,7.05173913 L43.6702911,17.686697 C46.1262926,18.8087867 47.8405983,21.2164806 48.038601,23.9400691 L48.5382989,30.7623142 C48.7519553,33.6949758 47.1272442,36.3368314 44.5753769,37.4070418 L44.5753769,37.4070418 Z M45.0782347,24.1679587 C44.9478534,22.3967704 43.6452066,20.789048 41.9072748,20.2578568 C41.3384485,20.0834024 40.9251853,19.5789045 40.8560569,18.975413 C40.8450703,18.8890124 40.8387991,18.8041191 40.8340837,18.7208302 C40.8309238,18.6768277 40.8309238,18.6312692 40.8215414,18.5856622 L38.5619869,7.68664029 C38.0387114,5.17056881 35.4774617,3.04419959 32.9696382,3.04419959 L15.5891044,3.0441995 C13.0796767,3.0441995 10.5199826,5.17056872 9.99675574,7.6866402 L7.73559704,18.587218 C7.72616604,18.6280601 7.72616604,18.6736672 7.72305476,18.7192256 C7.71678364,18.8056749 7.71051248,18.8937286 7.70108149,18.9801292 C7.6303975,19.5836208 7.21864132,20.0849583 6.65141929,20.2594126 C4.91198043,20.7890479 3.60777802,22.3967217 3.47895232,24.1695145 L2.9792057,30.9918083 C2.84561589,32.8069991 3.94082892,34.358126 5.64259235,34.7620258 C6.28686677,34.9176149 6.75511178,35.4928573 6.78812034,36.1718096 C6.84942193,37.4432163 7.86291574,38.4379659 9.09482987,38.4379659 C10.298451,38.4379659 11.285256,37.5029236 11.3921084,36.2613706 C11.4612368,35.4771525 12.1023514,34.8752169 12.870736,34.8752169 L35.6864024,34.8752169 C36.4547871,34.8752169 37.0990129,35.4771525 37.16503,36.2613706 C37.2718824,37.5029236 38.2586874,38.4379659 39.4623085,38.4379659 C40.6942226,38.4379659 41.7077164,37.4416117 41.769018,36.1718096 C41.8035822,35.4896969 42.2718272,34.916059 42.9161017,34.7620258 C44.6162609,34.358126 45.7115225,32.8053946 45.5763284,30.9902038 L45.0782347,24.1679587 L45.0782347,24.1679587 Z M39.8740161,30.2091461 C39.2517636,30.8456517 38.3796864,31.2165374 37.5012894,31.2165374 C36.6228925,31.2165374 35.7508153,30.8456031 35.1301184,30.2091461 C34.5094702,29.5726405 34.1480775,28.6784403 34.1480775,27.7779193 C34.1480775,26.8773984 34.5094701,25.9815937 35.1301184,25.3450881 C35.7508153,24.7085825 36.6228925,24.3376968 37.5012894,24.3376968 C38.3796864,24.3376968 39.2517636,24.7086311 39.8740161,25.3450881 C40.4946644,25.9815936 40.856057,26.8773984 40.856057,27.7779193 C40.8560569,28.6784403 40.4946644,29.5726405 39.8740161,30.2091461 L39.8740161,30.2091461 Z M37.0267733,18.5558084 C36.7360647,18.9157056 36.2630555,19.12473 35.7115842,19.12473 L12.8439985,19.12473 C12.2940342,19.12473 11.8210251,18.9157057 11.5099474,18.5337828 C11.2130163,18.1833182 11.0856976,17.674104 11.1689725,17.1224917 C11.1768479,17.0847613 11.183119,17.0486355 11.1909944,17.012461 L12.9870193,9.00837028 C13.2132664,7.74479169 14.4326383,6.69184189 15.6865744,6.69184189 L32.8690083,6.69184189 C34.1229443,6.69184189 35.3423162,7.74790345 35.5670077,9.00837028 L37.3630327,17.0140655 C37.3724636,17.0501914 37.3787348,17.0863658 37.3850059,17.1240962 C37.4667252,17.6757085 37.3410108,18.1849227 37.0267733,18.5558084 L37.0267733,18.5558084 Z M32.688312,9.73448553 L15.8719376,9.73448553 L14.4467849,16.0805791 L34.1119577,16.0805791 L32.688312,9.73448553 L32.688312,9.73448553 Z M13.428527,30.2091461 C12.8078301,30.8456517 11.9357529,31.2165374 11.057356,31.2165374 C10.1790077,31.2165374 9.30693048,30.8456031 8.68623357,30.2091461 C8.06398106,29.5726405 7.70258843,28.6784403 7.70258843,27.7779193 C7.70258843,26.8773984 8.06398102,25.9815937 8.68623357,25.3450881 C9.30693048,24.7085825 10.1790076,24.3376968 11.057356,24.3376968 C11.9357529,24.3376968 12.8078301,24.7086311 13.428527,25.3450881 C14.0507795,25.9815936 14.4121721,26.8773984 14.4121721,27.7779193 C14.4121721,28.6784403 14.0507795,29.5726405 13.428527,30.2091461 L13.428527,30.2091461 Z" id="Shape"></path>
                </g>
            </g>
        </g>
    </g>
</svg>